<svg xmlns="http://www.w3.org/2000/svg" xmlns:xlink="http://www.w3.org/1999/xlink" width="1060" height="54" viewBox="0 0 1060 54"><defs><style>.a{fill:none;}.b{fill:#d3e0e9;}.c{fill:#e3eef5;}.d{clip-path:url(#a);}.e{fill:#7c8a95;}.f{fill:url(#b);}.g{fill:#8fd3eb;}.h{stroke:none;}</style><clipPath id="a"><rect class="a" width="41" height="9"/></clipPath><linearGradient id="b" x1="-8.855" y1="13.906" x2="-8.855" y2="13.895" gradientUnits="objectBoundingBox"><stop offset="0" stop-color="#54bce1"/><stop offset="1" stop-color="#20a8d8"/></linearGradient></defs><g transform="translate(0 0.424)"><g class="b" transform="translate(0 -0.424)"><path class="h" d="M5,0H1055a5,5,0,0,1,5,5V54a0,0,0,0,1,0,0H0a0,0,0,0,1,0,0V5A5,5,0,0,1,5,0Z"/><path class="a" d="M5,.5H1055a4.5,4.5,0,0,1,4.5,4.5V53a.5.5,0,0,1-.5.5H1A.5.5,0,0,1,.5,53V5A4.5,4.5,0,0,1,5,.5Z"/></g><rect class="c" width="906" height="27" rx="6" transform="translate(85 13.576)"/><g class="d" transform="translate(13 22.576)"><g transform="translate(-66 -232)"><circle class="e" cx="4.5" cy="4.5" r="4.5" transform="translate(66 232)"/></g><g transform="translate(-50 -232)"><circle class="e" cx="4.5" cy="4.5" r="4.5" transform="translate(66 232)"/></g><g transform="translate(-34 -232)"><circle class="e" cx="4.5" cy="4.5" r="4.5" transform="translate(66 232)"/></g></g><rect class="c" width="27" height="27" rx="13.5" transform="translate(1020 13.576)"/><g transform="translate(1027.24 17.349)"><path class="f" d="M4,34.376H2.092A2.1,2.1,0,0,1,0,32.265V25.087a.247.247,0,0,1,0-.035v-1.53a13.344,13.344,0,0,1,2.457-2.537l.082.105a1.4,1.4,0,0,0,.14.166,11.63,11.63,0,0,0,1.416,1.121,1.744,1.744,0,1,0,1.73-2.073,1.865,1.865,0,0,0-.312.028,11.061,11.061,0,0,1-1.067-.829.72.72,0,0,1-.067-.079c-.012-.016-.025-.033-.037-.047.207-.175.368-.3.507-.4h.009c.481-.375.721-.564.965-.564s.472.175.977.571c1.669,1.309,4.822,3.942,4.82,4.534v8.76a2.1,2.1,0,0,1-2.093,2.111H7.77l-1.053-3.83a1.954,1.954,0,1,0-1.672,0l-1.053,3.83Z" transform="translate(0.004 -15.185)"/><path class="g" d="M15.386,7.435a.615.615,0,0,1-.338-.1,20.377,20.377,0,0,1-2.2-1.654A3.529,3.529,0,0,1,12.765.693,2.375,2.375,0,0,1,15.524.241a7.371,7.371,0,0,1,2.348,1.685,2.084,2.084,0,0,0,1.533.792,1.169,1.169,0,0,0,.762-.466.613.613,0,1,1,1.03.666,2.372,2.372,0,0,1-1.663,1.02A3.163,3.163,0,0,1,17,2.794a6.281,6.281,0,0,0-1.938-1.416,1.155,1.155,0,0,0-1.435.182,2.3,2.3,0,0,0,.088,3.252,18.676,18.676,0,0,0,2.008,1.5.613.613,0,0,1-.342,1.123Z" transform="translate(-9.694 -0.002)"/></g></g></svg>