<svg xmlns="http://www.w3.org/2000/svg" xmlns:xlink="http://www.w3.org/1999/xlink" viewBox="0 0 553.03 130.26"><defs><style>.cls-1{fill:url(#Безымянный_градиент);}.cls-2{fill:#8fd3eb;}.cls-3{isolation:isolate;}.cls-4{fill:#666;}.cls-5{fill:#20a8d8;}</style><linearGradient id="Безымянный_градиент" x1="-586.5" y1="1286.5" x2="-586.5" y2="1285.5" gradientTransform="matrix(66.23, 0, 0, -91.16, 38877.73, 117301.18)" gradientUnits="userSpaceOnUse"><stop offset="0" stop-color="#54bce1"/><stop offset="1" stop-color="#20a8d8"/></linearGradient></defs><title>Ресурс 1</title><g id="Слой_2" data-name="Слой 2"><g id="Слой_1-2" data-name="Слой 1"><g id="Group_1002" data-name="Group 1002"><g id="Group_999" data-name="Group 999"><path id="Subtraction_4" data-name="Subtraction 4" class="cls-1" d="M22.82,109.54H11.94A12,12,0,0,1,0,97.49V75.73L0,56.52a1.41,1.41,0,0,1,0-.2V47.59c0-1.1,5.76-7.05,14-14.48l.47.6a8,8,0,0,0,.8.95,66.3,66.3,0,0,0,8.07,6.4A9.94,9.94,0,1,0,33.2,29.23a10.61,10.61,0,0,0-1.78.16,63.05,63.05,0,0,1-6.08-4.73,4.11,4.11,0,0,1-.38-.45c-.07-.09-.14-.19-.21-.27,1.18-1,2.1-1.7,2.89-2.31l.05,0c2.74-2.14,4.11-3.22,5.5-3.22s2.69,1,5.57,3.26c9.51,7.47,27.48,22.5,27.47,25.88v50a12,12,0,0,1-11.93,12.05h-10l-6-21.86a11.14,11.14,0,1,0-9.53,0l-6,21.86Z"/><path class="cls-2" d="M32.38,42.43a3.51,3.51,0,0,1-1.93-.58c-.95-.64-9.38-6.28-12.53-9.44-8-8-8.21-20.75-.5-28.46,2.9-2.9,8-5.7,15.75-2.58,4.19,1.68,8.7,4.92,13.4,9.62,3.23,3.23,6.25,4.78,8.75,4.52a6.67,6.67,0,0,0,4.35-2.66,3.5,3.5,0,0,1,5.88,3.8,13.54,13.54,0,0,1-9.49,5.82c-4.73.51-9.6-1.69-14.44-6.53-4-4-7.8-6.77-11.06-8.08C26,6,23.81,7.46,22.37,8.9c-5,5-4.76,13.31.5,18.56,2.26,2.26,9,6.95,11.46,8.56a3.5,3.5,0,0,1-1.95,6.41Z"/></g><g id="RebateKey" class="cls-3"><g class="cls-3"><path class="cls-4" d="M144.46,107.71H127.07L116.62,90.42c-.78-1.32-1.53-2.49-2.25-3.52a20.44,20.44,0,0,0-2.18-2.65,8.66,8.66,0,0,0-2.3-1.69,5.8,5.8,0,0,0-2.6-.58h-4.08v25.73H88.07V40.49h24q24.47,0,24.47,18.28a18.94,18.94,0,0,1-1.08,6.5,18.07,18.07,0,0,1-3,5.36,19.42,19.42,0,0,1-4.76,4.13,24.56,24.56,0,0,1-6.21,2.72v.19a9.52,9.52,0,0,1,2.9,1.52,20,20,0,0,1,2.72,2.46,35.57,35.57,0,0,1,2.51,3c.8,1.08,1.52,2.14,2.18,3.17ZM103.21,51.84v18.7h6.57a10.88,10.88,0,0,0,7.82-2.81,9.4,9.4,0,0,0,3-7.08q0-8.82-10.54-8.81Z"/><path class="cls-4" d="M189.07,87.93H157.75q.75,10.45,13.17,10.45a25.72,25.72,0,0,0,13.93-3.75v10.69q-6.66,3.57-17.3,3.56-11.62,0-18.05-6.44t-6.42-18q0-12,6.94-18.94a23.12,23.12,0,0,1,17.06-7q10.5,0,16.24,6.23t5.75,16.93Zm-13.74-9.09q0-10.32-8.34-10.32a8,8,0,0,0-6.17,3,13.39,13.39,0,0,0-3.16,7.36Z"/><path class="cls-4" d="M211.92,102.13h-.19v5.58H196.92V36.65h14.81V66.93h.19a17.58,17.58,0,0,1,15.61-8.39q9.27,0,14.29,6.38t5,17.43q0,12-5.86,19.27a19.09,19.09,0,0,1-15.66,7.26Q216.47,108.88,211.92,102.13Zm-.42-20.25v4.93a11.22,11.22,0,0,0,2.67,7.68A8.69,8.69,0,0,0,221,97.54a9.07,9.07,0,0,0,7.85-3.91q2.79-3.91,2.79-11.09,0-6-2.55-9.3a8.63,8.63,0,0,0-7.29-3.36,9.4,9.4,0,0,0-7.38,3.33A12.61,12.61,0,0,0,211.5,81.88Z"/><path class="cls-4" d="M294.49,107.71h-14v-6.89h-.18a15.64,15.64,0,0,1-14.3,8.06q-7,0-11-4t-4-10.57q0-14,16.55-16.12l13-1.74q0-7.87-8.53-7.87a29.12,29.12,0,0,0-16.32,5.11V62.57a37,37,0,0,1,8.46-2.81A44.69,44.69,0,0,1,274,58.54q20.54,0,20.53,20.48Zm-13.92-19.5V85l-8.72,1.12q-7.22.95-7.22,6.52a5.39,5.39,0,0,0,1.76,4.15,6.75,6.75,0,0,0,4.76,1.61,8.76,8.76,0,0,0,6.79-2.88A10.41,10.41,0,0,0,280.57,88.21Z"/><path class="cls-4" d="M334.26,107.15c-2.18,1.16-5.48,1.73-9.89,1.73q-15.64,0-15.65-16.26v-22h-7.78V59.71h7.78V49.35l14.76-4.22V59.71h10.78V70.63H323.48V90q0,7.5,6,7.5a10,10,0,0,0,4.82-1.36Z"/><path class="cls-4" d="M384.4,87.93H353.09q.75,10.45,13.17,10.45a25.71,25.71,0,0,0,13.92-3.75v10.69q-6.66,3.57-17.3,3.56-11.62,0-18-6.44t-6.43-18q0-12,6.94-18.94a23.13,23.13,0,0,1,17.06-7q10.5,0,16.25,6.23T384.4,81.7Zm-13.74-9.09q0-10.32-8.34-10.32a8,8,0,0,0-6.16,3A13.4,13.4,0,0,0,353,78.84Z"/></g><g class="cls-3"><path class="cls-5" d="M453.28,107.71H434.16l-19.6-29.2a28.52,28.52,0,0,1-1.78-3.7h-.23v32.9H397.41V40.49h15.14V72.27h.23c.38-.87,1-2.12,1.88-3.75l18.56-28h18L427.83,72.56Z"/><path class="cls-5" d="M499.48,87.93H468.17q.74,10.45,13.17,10.45a25.71,25.71,0,0,0,13.92-3.75v10.69q-6.66,3.57-17.3,3.56-11.62,0-18-6.44t-6.43-18q0-12,6.94-18.94a23.12,23.12,0,0,1,17.06-7q10.5,0,16.25,6.23t5.74,16.93Zm-13.74-9.09q0-10.32-8.34-10.32a8,8,0,0,0-6.16,3,13.4,13.4,0,0,0-3.17,7.36Z"/><path class="cls-5" d="M553,59.71l-19.5,51.85q-7,18.69-21.18,18.7a27.18,27.18,0,0,1-8.86-1.22V117.23a12.52,12.52,0,0,0,6.42,1.73,8,8,0,0,0,8-5.39l2.53-5.95-19.5-47.91h16.4l9,29.21a37.86,37.86,0,0,1,1.31,6.42h.19A44.38,44.38,0,0,1,529.31,89l9.05-29.3Z"/></g></g></g></g></g></svg>